HIERARCHY
ROOT Hips
{
    OFFSET 0.000000 0.000000 0.000000
    CHANNELS 6 Xposition Yposition Zposition Zrotation Xrotation Yrotation
    JOINT Spine
    {
        OFFSET -0.000000 8.185774 0.000000
        CHANNELS 3 Zrotation Xrotation Yrotation
        JOINT Spine1
        {
            OFFSET -0.000000 23.949169 0.000000
            CHANNELS 3 Zrotation Xrotation Yrotation
            JOINT Neck
            {
                OFFSET -0.000000 23.850817 2.168256
                CHANNELS 3 Zrotation Xrotation Yrotation
                JOINT Head
                {
                    OFFSET -0.000000 13.975711 -1.996530
                    CHANNELS 3 Zrotation Xrotation Yrotation
                    End Site
                    {
                        OFFSET -0.000000 24.956627 0.000000
                    }
                }
            }
            JOINT LeftShoulder
            {
                OFFSET 3.979389 22.161966 -0.249083
                CHANNELS 3 Zrotation Xrotation Yrotation
                JOINT LeftArm
                {
                    OFFSET 10.812937 0.000000 0.000000
                    CHANNELS 3 Zrotation Xrotation Yrotation
                    JOINT LeftForeArm
                    {
                        OFFSET 31.697208 0.000000 0.000000
                        CHANNELS 3 Zrotation Xrotation Yrotation
                        JOINT LeftHand
                        {
                            OFFSET 27.047384 0.000000 0.000000
                            CHANNELS 3 Zrotation Xrotation Yrotation
                            End Site
                            {
                                OFFSET 14.973977 0.000000 0.000000
                            }
                        }
                    }
                }
            }
            JOINT RightShoulder
            {
                OFFSET -4.006446 22.161966 -0.249083
                CHANNELS 3 Zrotation Xrotation Yrotation
                JOINT RightArm
                {
                    OFFSET -10.812937 0.000000 0.000000
                    CHANNELS 3 Zrotation Xrotation Yrotation
                    JOINT RightForeArm
                    {
                        OFFSET -31.697208 0.000000 0.000000
                        CHANNELS 3 Zrotation Xrotation Yrotation
                        JOINT RightHand
                        {
                            OFFSET -27.047384 0.000000 0.000000
                            CHANNELS 3 Zrotation Xrotation Yrotation
                            End Site
                            {
                                OFFSET -14.973977 0.000000 0.000000
                            }
                        }
                    }
                }
            }
        }
    }
    JOINT LeftUpLeg
    {
        OFFSET 9.982651 0.000000 0.000000
        CHANNELS 3 Zrotation Xrotation Yrotation
        JOINT LeftLeg
        {
            OFFSET -0.000000 -38.511635 0.000000
            CHANNELS 3 Zrotation Xrotation Yrotation
            JOINT LeftFoot
            {
                OFFSET -0.000000 -44.789326 0.000000
                CHANNELS 3 Zrotation Xrotation Yrotation
                JOINT LeftToeBase
                {
                    OFFSET -0.000000 -6.488723 14.973977
                    CHANNELS 3 Zrotation Xrotation Yrotation
                    End Site
                    {
                        OFFSET -0.000000 0.000000 3.993060
                    }
                }
            }
        }
    }
    JOINT RightUpLeg
    {
        OFFSET -9.982651 0.000000 0.000000
        CHANNELS 3 Zrotation Xrotation Yrotation
        JOINT RightLeg
        {
            OFFSET -0.000000 -38.511635 0.000000
            CHANNELS 3 Zrotation Xrotation Yrotation
            JOINT RightFoot
            {
                OFFSET -0.000000 -44.789326 0.000000
                CHANNELS 3 Zrotation Xrotation Yrotation
                JOINT RightToeBase
                {
                    OFFSET -0.000000 -6.488723 14.973977
                    CHANNELS 3 Zrotation Xrotation Yrotation
                    End Site
                    {
                        OFFSET -0.000000 0.000000 3.993060
                    }
                }
            }
        }
    }
}
MOTION
Frames:    10
Frame Time:    0.008333
-6.647678    93.933784    235.822678    0.013991    -2.118127    179.850510    0.396406    -8.656854    0.240293    0.201848    0.817594    0.209013    6.439874    25.887156    3.826695    -10.024296    -8.381345    2.439166    13.587995    0.998383    -0.391409    -17.526667    6.533305    -1.446086    0.865931    0.807479    4.520181    -0.511684    0.773149    0.047646    -16.455334    -0.508387    0.421520    20.286615    -12.431710    -0.702122    0.422671    12.143765    8.588041    -17.679331    13.949658    -12.078366    7.331352    2.080436    4.343422    -0.815782    4.888602    5.538985    -8.612180    -5.870873    11.815198    0.000000    0.000000    0.000000    -3.790347    0.429186    -10.486053    -0.767675    5.116800    -3.468539    6.309536    -5.037158    -16.692245    0.000000    0.000000    0.000000    
-6.649860    93.932327    235.820297    0.014876    -2.118667    179.853561    0.398338    -8.669123    0.240017    0.210112    0.836060    0.208369    6.404653    25.895180    3.824939    -9.989017    -8.405820    2.440035    13.566840    1.011531    -0.389076    -17.517408    6.520471    -1.445911    0.864733    0.799851    4.517950    -0.512704    0.765646    0.039890    -16.489340    -0.519452    0.433614    20.314125    -12.412854    -0.721060    0.440585    12.121409    8.580974    -17.870749    13.951422    -12.111394    7.331662    2.078622    4.340069    -0.813716    4.900120    5.500258    -8.630140    -5.890048    11.853960    0.000000    0.000000    0.000000    -3.792075    0.420083    -10.537731    -0.775298    5.133026    -3.459704    6.326853    -5.045010    -16.659145    0.000000    0.000000    0.000000    
-6.655243    93.934311    235.816025    -0.001562    -2.103912    179.866409    0.385832    -8.652555    0.240407    0.195608    0.828162    0.209729    6.440997    25.880747    3.802741    -10.016066    -8.362818    2.417211    13.567159    1.011312    -0.392237    -17.516022    6.542061    -1.456666    0.866319    0.799291    4.536513    -0.511586    0.764851    0.025447    -16.441872    -0.500162    0.428508    20.283922    -12.380548    -0.728660    0.422844    12.139015    8.587786    -17.690294    13.948461    -12.093977    7.306296    2.089318    4.314212    -0.808036    4.893520    5.612610    -8.623003    -5.852991    11.757902    0.000000    0.000000    0.000000    -3.816185    0.440950    -10.534380    -0.765664    5.132801    -3.441885    6.332689    -5.046804    -16.680920    0.000000    0.000000    0.000000    
-6.651229    93.934074    235.811951    0.006673    -2.099051    179.861572    0.383447    -8.654460    0.244817    0.208309    0.834421    0.214517    6.455341    25.895781    3.791732    -10.039339    -8.394656    2.400326    13.553666    1.029966    -0.392124    -17.500721    6.517036    -1.459699    0.853665    0.811302    4.538961    -0.511583    0.777446    0.017919    -16.445589    -0.499269    0.440301    20.290213    -12.353442    -0.748579    0.431174    12.132718    8.582747    -17.717876    13.944311    -12.092487    7.319138    2.092044    4.325818    -0.808239    4.907801    5.559001    -8.622516    -5.870847    11.805639    0.000000    0.000000    0.000000    -3.801040    0.454925    -10.527225    -0.769523    5.117967    -3.448502    6.312152    -5.046802    -16.682272    0.000000    0.000000    0.000000    
-6.655014    93.935356    235.809906    -0.003343    -2.100374    179.863266    0.388716    -8.656972    0.246804    0.184601    0.835227    0.216200    6.440343    25.886799    3.782139    -9.997994    -8.387026    2.397888    13.545770    1.035372    -0.401727    -17.486616    6.537138    -1.445753    0.844126    0.803806    4.550863    -0.505451    0.770246    0.016283    -16.427553    -0.493127    0.436478    20.293100    -12.330530    -0.740043    0.429898    12.114350    8.562563    -17.717403    13.920286    -12.053823    7.301686    2.083698    4.318209    -0.802670    4.919324    5.547997    -8.601684    -5.869648    11.817895    0.000000    0.000000    0.000000    -3.813990    0.452735    -10.511303    -0.769755    5.115611    -3.518448    6.328616    -5.026039    -16.637152    0.000000    0.000000    0.000000    
-6.656422    93.936493    235.808609    -0.007885    -2.098949    179.864929    0.379183    -8.656833    0.248098    0.188892    0.837119    0.218346    6.448078    25.883801    3.767392    -9.999687    -8.389416    2.382425    13.544965    1.043473    -0.405393    -17.494137    6.569699    -1.439628    0.789355    0.513815    4.448503    -0.215881    0.483110    0.058910    -16.423613    -0.486101    0.436275    20.303240    -12.328259    -0.745086    0.427162    12.119890    8.556284    -17.731562    13.928574    -12.060869    7.292745    2.079654    4.313475    -0.791956    4.931287    5.522399    -8.633406    -5.882330    11.853245    0.000000    0.000000    0.000000    -3.823498    0.453051    -10.513991    -0.764161    5.123053    -3.463201    6.318974    -5.047068    -16.696136    0.000000    0.000000    0.000000    
-6.655296    93.936272    235.804840    -0.005746    -2.096018    179.855423    0.384387    -8.653772    0.255287    0.181265    0.829361    0.225102    6.468876    25.891653    3.761884    -10.012230    -8.391720    2.376249    13.540341    1.054125    -0.414945    -17.485125    6.564896    -1.428519    0.780476    0.530183    4.461934    -0.207506    0.499630    0.083136    -16.407869    -0.485143    0.446025    20.297190    -12.332209    -0.758420    0.452446    12.180322    8.534352    -17.754614    13.996281    -12.106751    7.296310    2.084788    4.324121    -0.796643    4.934353    5.555244    -8.616158    -5.876998    11.811010    0.000000    0.000000    0.000000    -3.821472    0.458360    -10.519136    -0.762659    5.119759    -3.472714    6.348131    -5.047900    -16.667345    0.000000    0.000000    0.000000    
-6.653718    93.938957    235.799164    -0.001657    -2.078885    179.850296    0.386358    -8.647001    0.258421    0.179653    0.844812    0.227822    6.464120    25.885630    3.759477    -9.985366    -8.399635    2.378007    13.552715    1.056573    -0.416012    -17.496225    6.590572    -1.421822    0.775870    0.517431    4.478834    -0.190918    0.487059    0.097364    -16.399618    -0.480358    0.445037    20.305489    -12.323152    -0.757880    0.451098    12.173255    8.528810    -17.756350    13.989822    -12.108524    7.304352    2.107054    4.329755    -0.802164    4.935354    5.535479    -8.628276    -5.884836    11.843414    0.000000    0.000000    0.000000    -3.810762    0.481817    -10.490993    -0.768900    5.112708    -3.492626    6.331522    -5.038635    -16.674791    0.000000    0.000000    0.000000    
-6.653193    93.938766    235.796692    0.001871    -2.082762    179.847580    0.388571    -8.675508    0.263752    0.180443    0.892568    0.233002    6.492978    25.864504    3.749364    -10.020887    -8.408382    2.360467    13.563721    1.049474    -0.416213    -17.511263    6.617511    -1.413903    0.786648    0.510182    4.482057    -0.211453    0.479198    0.136024    -16.409275    -0.491592    0.435734    20.322001    -12.324755    -0.767092    0.472222    12.152292    8.525127    -17.924559    13.992341    -12.154331    7.306027    2.101986    4.331595    -0.795577    4.945622    5.526128    -8.606140    -5.891832    11.834797    0.000000    0.000000    0.000000    -3.807775    0.474716    -10.519618    -0.769623    5.119087    -3.451969    6.302001    -5.031539    -16.690584    0.000000    0.000000    0.000000    
-6.657029    93.941444    235.795593    -0.004190    -2.072654    179.853882    0.383055    -8.660318    0.263073    0.182198    0.883695    0.232953    6.488033    25.866669    3.749367    -10.001571    -8.412108    2.363996    13.553335    1.056505    -0.424785    -17.506521    6.635100    -1.399945    0.777776    0.477002    4.487057    -0.178201    0.446450    0.143534    -16.399080    -0.490036    0.436569    20.310780    -12.348792    -0.772563    0.496845    12.166020    8.503069    -17.936018    14.005270    -12.152931    7.292570    2.105761    4.317203    -0.787938    4.952019    5.537671    -8.621632    -5.882578    11.842540    0.000000    0.000000    0.000000    -3.814730    0.485370    -10.533154    -0.774651    5.118472    -3.479542    6.334210    -5.023525    -16.654037    0.000000    0.000000    0.000000    
